<svg width="24" height="24" viewBox="0 0 24 24" fill="none" xmlns="http://www.w3.org/2000/svg">
<path fill-rule="evenodd" clip-rule="evenodd" d="M2.46967 2.46967C2.76256 2.17678 3.23744 2.17678 3.53033 2.46967L17.8172 16.7565C17.8653 16.7939 17.9096 16.8378 17.9485 16.8879L21.5303 20.4697C21.8232 20.7626 21.8232 21.2374 21.5303 21.5303C21.2374 21.8232 20.7626 21.8232 20.4697 21.5303L17.2465 18.3071C15.6369 19.2661 13.8851 19.75 12 19.75C7.63999 19.75 4.09715 17.1814 1.34883 12.3721C1.21704 12.1415 1.21706 11.8584 1.34887 11.6278C2.57252 9.48708 3.95233 7.7879 5.50004 6.5607L2.46967 3.53033C2.17678 3.23744 2.17678 2.76256 2.46967 2.46967ZM6.56876 7.62942C5.24108 8.64772 4.00402 10.0949 2.86833 12.0001C5.41111 16.2677 8.46133 18.25 12 18.25C13.4819 18.25 14.8599 17.9039 16.1466 17.2073L13.3413 14.402C12.9342 14.6299 12.4719 14.7525 11.997 14.7524C11.2676 14.7521 10.5681 14.4621 10.0525 13.9461C9.53686 13.4301 9.24733 12.7305 9.24759 12.001C9.24776 11.5268 9.37039 11.0652 9.59796 10.6586L6.56876 7.62942ZM10.7607 11.8214C10.752 11.8807 10.7476 11.9409 10.7476 12.0015C10.7475 12.3332 10.8791 12.6513 11.1135 12.8858C11.3479 13.1204 11.6659 13.2523 11.9976 13.2524C12.0585 13.2524 12.119 13.248 12.1786 13.2393L10.7607 11.8214ZM11.9973 5.74999C11.1762 5.74708 10.3588 5.86023 9.56927 6.08607C9.17104 6.2 8.75585 5.96951 8.64192 5.57127C8.528 5.17303 8.75849 4.75784 9.15672 4.64392C10.0817 4.37933 11.0393 4.24672 12.0013 4.25C16.3607 4.25052 19.9031 6.81906 22.6512 11.6279C22.783 11.8585 22.7829 12.1416 22.6511 12.3722C21.8503 13.773 20.984 14.9841 20.0478 15.9971C19.7666 16.3012 19.2921 16.3199 18.9879 16.0388C18.6838 15.7576 18.6651 15.2831 18.9462 14.9789C19.7114 14.1511 20.4404 13.1597 21.1317 11.9999C18.5889 7.73229 15.5387 5.75 12 5.75L11.9973 5.74999Z" fill="#3D4F6A"/>
</svg>
