<svg width="24" height="24" viewBox="0 0 24 24" fill="none" xmlns="http://www.w3.org/2000/svg">
<path fill-rule="evenodd" clip-rule="evenodd" d="M12.0007 10.9031C11.3932 10.9031 10.9007 11.3956 10.9007 12.0031C10.9007 12.6107 11.3932 13.1031 12.0007 13.1031C12.6082 13.1031 13.1007 12.6107 13.1007 12.0031C13.1007 11.3956 12.6082 10.9031 12.0007 10.9031ZM9.10071 12.0031C9.10071 10.4015 10.3991 9.10315 12.0007 9.10315C13.6023 9.10315 14.9007 10.4015 14.9007 12.0031C14.9007 13.6048 13.6023 14.9031 12.0007 14.9031C10.3991 14.9031 9.10071 13.6048 9.10071 12.0031Z" fill="#131B25"/>
<path fill-rule="evenodd" clip-rule="evenodd" d="M3.04344 12.0016C5.55953 16.1872 8.55267 18.1016 12.0003 18.1016C15.448 18.1016 18.4412 16.1872 20.9572 12.0016C18.4412 7.81593 15.448 5.90156 12.0003 5.90156C8.55267 5.90156 5.55953 7.81593 3.04344 12.0016ZM1.21893 11.555C3.98352 6.71725 7.56833 4.10156 12.0003 4.10156C16.4324 4.10156 20.0172 6.71725 22.7817 11.555C22.9399 11.8317 22.9399 12.1714 22.7817 12.4481C20.0172 17.2859 16.4324 19.9016 12.0003 19.9016C7.56833 19.9016 3.98352 17.2859 1.21893 12.4481C1.06081 12.1714 1.06081 11.8317 1.21893 11.555Z" fill="#131B25"/>
</svg>
