<svg width="47" height="64" viewBox="0 0 47 64" fill="none" xmlns="http://www.w3.org/2000/svg">
<g clip-path="url(#clip0_591_1708)">
<path d="M2.82666 63.7698V58.6953H4.36293V63.7819L2.82666 63.7698Z" fill="#0083CA"/>
<path d="M5.18213 63.7698V58.6953H6.46168L8.21799 61.4222V58.6953H9.44049V63.7819H8.21799L6.41278 60.9381L6.3924 63.7819L5.18213 63.7698Z" fill="#0083CA"/>
<path d="M9.75439 62.5842L11.0339 62.1566C11.1241 62.3543 11.2545 62.5314 11.417 62.677C11.6046 62.8194 11.8368 62.8922 12.0731 62.8827C12.2328 62.8893 12.3907 62.8471 12.5254 62.7617C12.5792 62.73 12.624 62.6852 12.6554 62.6315C12.6868 62.5779 12.7037 62.5171 12.7047 62.4551C12.7047 62.1849 12.4724 61.963 12.0038 61.7976C11.5632 61.6538 11.1306 61.4869 10.7079 61.2974C10.4863 61.1681 10.3043 60.9816 10.1816 60.7577C10.0588 60.5339 9.9999 60.2812 10.0111 60.0268C10.0188 59.8237 10.0766 59.6255 10.1797 59.4497C10.2827 59.2739 10.4277 59.1257 10.602 59.0183C10.9975 58.7279 11.4788 58.5747 11.9712 58.5827C12.4236 58.5727 12.8706 58.6812 13.267 58.8973C13.6055 59.0749 13.8749 59.3587 14.0331 59.7041L12.8106 60.1357C12.7385 59.9815 12.6344 59.844 12.505 59.7323C12.352 59.6207 12.1652 59.5638 11.9753 59.571C11.8436 59.5668 11.714 59.6035 11.6044 59.6758C11.552 59.7114 11.5097 59.7598 11.4819 59.8164C11.454 59.8729 11.4415 59.9357 11.4455 59.9985C11.4455 60.1841 11.6819 60.3575 12.1546 60.5189C12.6048 60.666 13.0457 60.8398 13.4748 61.0393C13.685 61.1399 13.8631 61.2959 13.9896 61.4902C14.1161 61.6845 14.1862 61.9094 14.192 62.1405C14.1952 62.3844 14.1381 62.6254 14.026 62.8426C13.9138 63.0598 13.7498 63.2466 13.5482 63.3869C13.0934 63.718 12.5395 63.8884 11.9753 63.871C11.4983 63.8806 11.0273 63.7651 10.6101 63.5362C10.2231 63.3253 9.921 62.9892 9.75439 62.5842Z" fill="#0083CA"/>
<path d="M18.8618 58.6953V62.1684C18.8792 62.4089 18.8396 62.6501 18.7463 62.8728C18.6529 63.0955 18.5083 63.2936 18.3239 63.4512C17.8684 63.7665 17.3179 63.9187 16.7632 63.8828C16.2221 63.9229 15.6846 63.7666 15.2514 63.4431C15.0787 63.2799 14.9442 63.0812 14.8576 62.8609C14.771 62.6407 14.7343 62.4043 14.7502 62.1684V58.6953H16.2864V62.2249C16.2758 62.4022 16.3245 62.578 16.425 62.7251C16.4899 62.7986 16.5711 62.8563 16.6624 62.8934C16.7536 62.9305 16.8523 62.9461 16.9507 62.9389C17.0503 62.9478 17.1505 62.93 17.2409 62.8874C17.3312 62.8449 17.4083 62.779 17.4641 62.6969C17.5514 62.5289 17.5922 62.341 17.5823 62.1523V58.6953H18.8618Z" fill="#0083CA"/>
<path d="M19.7134 63.7696V58.6951H21.9994C22.5089 58.6684 23.0154 58.7874 23.4583 59.038C23.6459 59.1536 23.7991 59.3165 23.9022 59.51C24.0053 59.7035 24.0546 59.9206 24.0451 60.1392C24.0472 60.4033 23.9482 60.6584 23.768 60.8532C23.568 61.072 23.3095 61.2301 23.0223 61.309L24.0451 63.7817H22.5292L21.7631 61.5793H21.2496V63.7817L19.7134 63.7696ZM21.2496 59.6269V60.7564H21.5553C21.798 60.7674 22.0398 60.7203 22.2603 60.6192C22.336 60.5818 22.3998 60.5243 22.4444 60.453C22.489 60.3818 22.5127 60.2997 22.5129 60.2158C22.5217 60.1133 22.4966 60.0107 22.4415 59.9234C22.3864 59.8362 22.3042 59.7689 22.2073 59.7318C21.9804 59.6634 21.7432 59.6347 21.5064 59.6471L21.2496 59.6269Z" fill="#0083CA"/>
<path d="M24.3711 63.7698L25.7892 58.6953H27.8267L29.1266 63.7819H27.574L27.3336 62.7533H25.9359L25.6629 63.7819L24.3711 63.7698ZM26.1274 61.8417H27.1176L26.6734 59.7683L26.1274 61.8417Z" fill="#0083CA"/>
<path d="M29.6074 63.7698V58.6953H30.887L32.6433 61.4222V58.6953H33.8658V63.7819H32.6433L30.8381 60.9381V63.7819L29.6074 63.7698Z" fill="#0083CA"/>
<path d="M38.829 60.455H37.3987C37.405 60.2507 37.3632 60.0476 37.2764 59.8621C37.233 59.7604 37.1596 59.674 37.0658 59.6143C36.972 59.5546 36.8622 59.5242 36.7508 59.5273C36.6067 59.5269 36.4669 59.5757 36.3549 59.6653C36.2429 59.7549 36.1654 59.8799 36.1354 60.0194C36.029 60.4137 35.9837 60.8217 36.0009 61.2295C35.9781 61.6485 36.0179 62.0685 36.1191 62.476C36.1606 62.6156 36.2491 62.737 36.37 62.8199C36.4908 62.9028 36.6367 62.9423 36.7833 62.9318C36.8941 62.9412 37.0055 62.9211 37.1058 62.8736C37.2061 62.8261 37.2917 62.7529 37.3538 62.6615C37.4685 62.4257 37.5191 62.1643 37.5005 61.9032L38.829 62.004C38.8409 62.2575 38.7967 62.5104 38.6996 62.7452C38.6024 62.98 38.4547 63.191 38.2666 63.3634C37.8341 63.724 37.2787 63.9072 36.7141 63.8757C36.3552 63.9028 35.9953 63.841 35.6666 63.6959C35.3379 63.5508 35.0509 63.3271 34.8314 63.0447C34.5163 62.4972 34.3506 61.8779 34.3506 61.2477C34.3506 60.6175 34.5163 59.9982 34.8314 59.4506C35.0476 59.1607 35.3342 58.9295 35.6648 58.7786C35.9954 58.6276 36.3591 58.5619 36.7222 58.5874C37.013 58.5675 37.3049 58.6055 37.5806 58.699C37.8563 58.7925 38.1104 58.9397 38.3278 59.132C38.498 59.307 38.6302 59.5147 38.7164 59.7423C38.8026 59.9698 38.8409 60.2123 38.829 60.455V60.455Z" fill="#0083CA"/>
<path d="M39.3994 63.7698V58.6953H43.2177V59.6796H40.9316V60.7122H42.4679V61.7005H40.9316V62.7291H43.2177V63.7577L39.3994 63.7698Z" fill="#0083CA"/>
<path d="M43.2016 0H2.79004V56.6709H43.2016V0Z" fill="#0083CA"/>
<path d="M6.44932 36.051V37.3176H6.68974C6.74386 37.323 6.79842 37.3135 6.84736 37.2899C6.89629 37.2664 6.93765 37.2299 6.96684 37.1845C7.02746 37.0179 7.05379 36.841 7.04426 36.6641C7.06903 36.4735 7.02423 36.2804 6.91794 36.1196C6.86904 36.0631 6.75494 36.0389 6.55934 36.0389L6.44932 36.051ZM5.4917 40.2986V35.1313H6.51859C6.9169 35.088 7.31763 35.1883 7.64737 35.4137C7.88371 35.6275 8.00189 36.055 8.00189 36.7045C8.00189 36.882 8.00189 36.999 8.00189 37.0675C8.00189 37.1361 7.98151 37.2329 7.96521 37.362C7.94292 37.5034 7.89604 37.6398 7.82667 37.7654C7.75631 37.9185 7.64085 38.0471 7.49542 38.1342C7.34999 38.2213 7.18138 38.2629 7.01167 38.2535H6.47784V40.3026L5.4917 40.2986ZM8.38494 40.2986V35.1313H10.508V36.1317H9.33848V37.1522H10.3694V38.1526H9.33848V39.3023H10.561V40.2986H8.38494ZM10.8299 36.1317V35.1313H13.0263V36.1317H12.4069V40.2986H11.4412V36.1317H10.8299ZM13.2749 40.2986V35.1313H14.5463C14.8802 35.101 15.2126 35.2025 15.4713 35.4137C15.6914 35.6866 15.7939 36.0345 15.7566 36.3818C15.7675 36.6337 15.7372 36.8857 15.6669 37.128C15.6237 37.2337 15.5575 37.3286 15.473 37.406C15.3884 37.4834 15.2877 37.5414 15.1779 37.5758C15.2633 37.5928 15.3439 37.628 15.4143 37.6788C15.4846 37.7296 15.543 37.795 15.5854 37.8702C15.6905 38.0295 15.7444 38.2166 15.7403 38.4068V39.8347C15.7403 39.8831 15.7403 39.9356 15.7403 39.984C15.7364 40.0961 15.7693 40.2065 15.834 40.2986H14.909C14.8606 40.2055 14.8302 40.1042 14.8193 40.0001C14.8193 39.8589 14.8193 39.7339 14.8193 39.5967C14.8193 39.4596 14.8193 39.3829 14.8193 39.3184V38.4834C14.8263 38.3688 14.7979 38.2548 14.7378 38.1566C14.6999 38.1214 14.6549 38.0946 14.6057 38.0779C14.5565 38.0612 14.5043 38.055 14.4526 38.0598H14.2733V40.2865L13.2749 40.2986ZM14.2366 36.0066V37.1885H14.473C14.5328 37.1925 14.5924 37.1774 14.643 37.1455C14.6936 37.1136 14.7325 37.0665 14.7541 37.011L14.7908 36.8578V36.5754C14.7979 36.4394 14.7828 36.3032 14.746 36.172C14.7112 36.1172 14.6611 36.0736 14.6018 36.0464C14.5425 36.0192 14.4765 36.0096 14.4118 36.0187L14.2366 36.0066ZM17.1339 36.4383V38.9997C17.1282 39.122 17.1476 39.2441 17.191 39.3587C17.2189 39.3967 17.2569 39.4263 17.3008 39.4442C17.3447 39.4621 17.3928 39.4676 17.4397 39.4601C17.4865 39.4526 17.5304 39.4323 17.5663 39.4016C17.6023 39.3709 17.6289 39.3309 17.6433 39.2861C17.6675 39.1925 17.6798 39.0963 17.68 38.9997V36.4383C17.6817 36.3393 17.6721 36.2406 17.6514 36.1438C17.6361 36.0919 17.6041 36.0463 17.5604 36.0139C17.5167 35.9815 17.4636 35.964 17.409 35.964C17.3544 35.964 17.3012 35.9815 17.2575 36.0139C17.2138 36.0463 17.1819 36.0919 17.1665 36.1438C17.1425 36.2428 17.1316 36.3445 17.1339 36.4463V36.4383ZM16.1722 38.8989V36.5472C16.1471 36.143 16.27 35.7434 16.5186 35.4217C16.6343 35.3027 16.7733 35.2085 16.9272 35.1447C17.0811 35.0809 17.2466 35.049 17.4134 35.0509C17.5802 35.0527 17.7449 35.0884 17.8972 35.1557C18.0496 35.2229 18.1864 35.3203 18.2994 35.4419C18.5474 35.7558 18.6694 36.1495 18.6416 36.5472V38.8989C18.6591 39.2903 18.5412 39.6759 18.3075 39.992C18.1951 40.1189 18.0566 40.2205 17.9013 40.2902C17.746 40.3598 17.5774 40.3958 17.4069 40.3958C17.2364 40.3958 17.0679 40.3598 16.9126 40.2902C16.7573 40.2205 16.6188 40.1189 16.5064 39.992C16.2696 39.6774 16.1514 39.2907 16.1722 38.8989" fill="white"/>
<path d="M20.7362 40.3857L18.3564 35.0449H19.8479L21.3719 38.8004L23.006 35.0449H24.3833L21.8446 40.3857H20.7362Z" fill="white"/>
<path d="M24.5669 35.0449H25.5205V40.3857H24.5669V35.0449ZM25.9768 40.3857V35.0449H28.0999V36.0735H26.9304V37.1344H27.9532V38.1671H26.9304V39.3571H28.1529V40.3857H25.9768ZM28.4218 36.0735V35.0449H30.6142V36.0735H29.9948V40.3857H29.0412V36.0735H28.4218ZM30.8872 40.3857V35.0449H31.9019L32.672 38.1913V35.0449H33.5889V40.3857H32.5498L31.7796 37.082V40.3857H30.8872ZM33.8742 40.3857L34.6443 35.0449H35.9116L36.6859 40.3857H35.6875L35.5938 39.4377H34.9255L34.8277 40.3857H33.8742ZM35.0274 38.4858H35.5001L35.2841 35.8719L35.0274 38.4858ZM36.9548 40.3857V35.0449H38.4626L38.7356 37.6871L39.0127 35.0449H40.5204V40.3857H39.5913V36.2309L39.0534 40.3857H38.4218L37.8839 36.2309V40.3857H36.9548Z" fill="white"/>
<path fill-rule="evenodd" clip-rule="evenodd" d="M30.9767 4.61133C25.0884 5.95862 22.4193 9.49224 21.9099 14.6958C21.8129 16.79 22.0007 18.8875 22.4682 20.9321C22.7371 22.0817 23.0794 23.2515 23.4217 24.4415C23.8204 25.6794 24.0251 26.9704 24.0289 28.2696C24.0776 29.9767 23.6655 31.6658 22.8349 33.1626C22.5113 33.7348 22.1095 34.2601 21.6409 34.7237C21.0745 35.1916 21.0501 34.5341 20.883 34.05C20.6268 33.2528 20.5151 32.4171 20.5529 31.5814C20.8341 29.1409 21.2579 26.5472 21.6817 23.9454C21.8162 19.4235 19.3182 16.5191 14.6401 14.9701C15.2636 15.6978 15.685 16.5736 15.8626 17.5114C16.3353 19.4194 15.6792 20.9603 15.2147 22.6908C14.9418 23.6135 14.8235 24.5742 14.8643 25.5347C14.9987 27.3217 15.7119 29.1651 16.6858 31.0287C17.3459 31.9121 17.8349 32.8641 18.4951 33.6709C19.7371 35.2231 20.7119 36.9677 21.3801 38.8341C21.9751 37.624 22.4315 36.2364 23.275 34.9335C25.0354 33.0295 26.808 31.1739 28.5725 29.0239C30.2636 26.5472 31.1764 23.8768 31.0378 20.9563C30.9519 19.7156 30.6885 18.4933 30.2555 17.3259C29.8072 15.9813 29.3535 14.6434 28.8944 13.3122C28.4869 12.1021 28.1405 11.138 28.2098 9.82704C28.2531 8.80814 28.5253 7.81161 29.0068 6.91004C29.4883 6.00846 30.1668 5.22453 30.993 4.61535" fill="#EF4123"/>
<path d="M42.2195 43.3398H3.76807V55.6833H42.2195V43.3398Z" fill="#FDB913"/>
<path d="M15.1575 45.3281C11.8976 45.3281 9.3833 45.3281 9.3833 45.3281V53.8556H11.9342V50.8706L15.1616 50.8383C15.1616 50.8383 18.116 50.8786 18.5357 48.418C18.5928 47.9582 18.7272 45.5581 15.1494 45.3322L15.1575 45.3281ZM14.4892 49.253H12.0157V46.9457H14.5748C15.9888 46.9457 15.9522 47.7766 15.9888 48.0792C15.9114 49.3256 14.4974 49.253 14.4974 49.253" fill="#ED1C24"/>
<path d="M20.2637 45.3406H23.1691L25.8627 51.4559L28.5522 45.3164H31.3761L27.1993 53.86H24.5016L20.2637 45.3406Z" fill="#ED1C24"/>
<path d="M36.6124 45.3164H34.2041V53.86H36.6124V45.3164Z" fill="#ED1C24"/>
</g>
<defs>
<clipPath id="clip0_591_1708">
<rect width="40.4278" height="63.8713" fill="white" transform="translate(2.79004)"/>
</clipPath>
</defs>
</svg>
